<svg width="19" height="19" viewBox="0 0 19 19" fill="none" xmlns="http://www.w3.org/2000/svg">
<path d="M9.5 19C14.7382 19 19 14.7382 19 9.5C19 4.26183 14.7382 0 9.5 0C4.26183 0 0 4.26183 0 9.5C0 14.7382 4.26183 19 9.5 19ZM9.5 0.949225C14.2151 0.949225 18.0508 4.78487 18.0508 9.5C18.0508 14.2151 14.2151 18.0508 9.5 18.0508C4.78487 18.0508 0.949225 14.2151 0.949225 9.5C0.949225 4.78487 4.78487 0.949225 9.5 0.949225Z" fill="#26C165"/>
<path d="M5.37377 9.97653H12.4794L10.6197 11.8362C10.4337 12.0222 10.4337 12.3205 10.6197 12.5065C10.7127 12.5995 10.8328 12.646 10.9568 12.646C11.0807 12.646 11.2008 12.5995 11.2938 12.5065L13.9633 9.83705C14.1492 9.65108 14.1492 9.35276 13.9633 9.16679L11.2938 6.49733C11.1079 6.31136 10.8095 6.31136 10.6236 6.49733C10.4376 6.6833 10.4376 6.98163 10.6236 7.1676L12.4833 9.02731H5.37377C5.11031 9.02731 4.89722 9.2404 4.89722 9.50386C4.89722 9.76732 5.11031 9.97653 5.37377 9.97653Z" fill="#26C165"/>
</svg>
