<svg width="44" height="44" viewBox="0 0 44 44" fill="none" xmlns="http://www.w3.org/2000/svg">
<g filter="url(#filter0_d_169_621)">
<path d="M44 22C44 34.1503 34.1503 44 22 44C15.5949 44 9.82906 41.263 5.8089 36.8944C4.7529 35.7477 3.81812 34.4879 3.02253 33.1365C1.1018 29.8697 0 26.0633 0 22C0 9.84971 9.84971 0 22 0C26.0642 0 29.8706 1.1018 33.1365 3.02343C34.4879 3.81812 35.7468 4.7529 36.8935 5.80979C41.2621 9.82816 44 15.5949 44 22Z" fill="#F0CD00"/>
<path d="M43.9998 21.9999C43.9998 33.8763 34.5901 43.5545 22.8188 43.9846C11.0474 43.5545 1.6377 33.8763 1.6377 21.9999C1.6377 10.1235 11.0474 0.445259 22.8188 0.0151367C34.5901 0.445259 43.9998 10.1235 43.9998 21.9999Z" fill="#FFDE50"/>
<path d="M36.8935 5.8098L5.80883 36.8945C4.75283 35.7478 3.81805 34.4879 3.02246 33.1365L33.1364 3.02344C34.4878 3.81813 35.7468 4.75291 36.8935 5.8098Z" fill="#FFEA94"/>
<path d="M42.4826 13.9569L13.9563 42.4833C11.9368 41.6895 10.0627 40.6057 8.38623 39.283L39.2832 8.38599C40.6059 10.0625 41.6897 11.9365 42.4826 13.9569Z" fill="#FFEA94"/>
<path d="M39.0955 21.9999C39.0955 31.441 31.4413 39.0952 22.0001 39.0952C18.7118 39.0952 15.6408 38.1667 13.034 36.5576C11.8981 35.8572 10.8511 35.0266 9.9118 34.0873C9.22127 33.3977 8.58911 32.6479 8.02429 31.8478C7.24666 30.746 6.59564 29.5481 6.09368 28.2757C5.35017 26.3945 4.93172 24.3489 4.90658 22.21C4.90479 22.14 4.90479 22.0699 4.90479 21.9999C4.90479 12.5587 12.5581 4.90454 22.0001 4.90454C22.0702 4.90454 22.1411 4.90454 22.2111 4.90634C24.3501 4.93148 26.3947 5.35083 28.276 6.09344C29.5484 6.5963 30.7463 7.24642 31.848 8.02405C32.6481 8.58976 33.397 9.22103 34.0876 9.91156C35.0268 10.8499 35.8574 11.8978 36.5578 13.0338C38.167 15.6405 39.0955 18.7116 39.0955 21.9999Z" fill="#FAA300"/>
<path d="M34.0876 9.91156L9.9118 34.0873C9.22127 33.3977 8.58911 32.6479 8.02429 31.8478C7.24666 30.746 6.59564 29.5481 6.09368 28.2757C5.35017 26.3945 4.93172 24.349 4.90658 22.21C4.90479 22.14 4.90479 22.0699 4.90479 21.9999C4.90479 12.5587 12.5581 4.90454 22.0001 4.90454C22.0702 4.90454 22.1411 4.90454 22.2111 4.90634C24.3501 4.93148 26.3947 5.35083 28.276 6.09344C29.5484 6.5963 30.7463 7.24642 31.848 8.02405C32.6481 8.58977 33.397 9.22103 34.0876 9.91156Z" fill="#FFBD00"/>
<path d="M39.0948 21.9999C39.0948 31.441 31.4406 39.0952 21.9995 39.0952C21.6753 39.0952 21.3539 39.0862 21.0342 39.0683C30.0263 38.5681 37.1633 31.1169 37.1633 21.9999C37.1633 12.8829 30.0263 5.43164 21.0342 4.93148C21.3539 4.91352 21.6753 4.90454 21.9995 4.90454C31.4406 4.90454 39.0948 12.5587 39.0948 21.9999Z" fill="#F68E00"/>
</g>
<defs>
<filter id="filter0_d_169_621" x="-4" y="0" width="52" height="52" filterUnits="userSpaceOnUse" color-interpolation-filters="sRGB">
<feFlood flood-opacity="0" result="BackgroundImageFix"/>
<feColorMatrix in="SourceAlpha" type="matrix" values="0 0 0 0 0 0 0 0 0 0 0 0 0 0 0 0 0 0 127 0" result="hardAlpha"/>
<feOffset dy="4"/>
<feGaussianBlur stdDeviation="2"/>
<feComposite in2="hardAlpha" operator="out"/>
<feColorMatrix type="matrix" values="0 0 0 0 0 0 0 0 0 0 0 0 0 0 0 0 0 0 0.25 0"/>
<feBlend mode="normal" in2="BackgroundImageFix" result="effect1_dropShadow_169_621"/>
<feBlend mode="normal" in="SourceGraphic" in2="effect1_dropShadow_169_621" result="shape"/>
</filter>
</defs>
</svg>
