<svg width="18" height="18" viewBox="0 0 18 18" fill="none" xmlns="http://www.w3.org/2000/svg">
<g clip-path="url(#clip0_144_516)">
<path d="M15.0521 18H1.94792C0.873375 18 0 17.1266 0 16.0521V2.94792C0 1.87337 0.873375 1 1.94792 1H15.0521C16.1266 1 17 1.87337 17 2.94792V16.0521C17 17.1266 16.1266 18 15.0521 18ZM1.94792 2.0625C1.45987 2.0625 1.0625 2.45987 1.0625 2.94792V16.0521C1.0625 16.5401 1.45987 16.9375 1.94792 16.9375H15.0521C15.5401 16.9375 15.9375 16.5401 15.9375 16.0521V2.94792C15.9375 2.45987 15.5401 2.0625 15.0521 2.0625H1.94792Z" fill="#062E4B"/>
<path d="M8.5 18C8.20675 18 7.96875 17.762 7.96875 17.4688V1.53125C7.96875 1.238 8.20675 1 8.5 1C8.79325 1 9.03125 1.238 9.03125 1.53125V17.4688C9.03125 17.762 8.79325 18 8.5 18Z" fill="#062E4B"/>
<path d="M16.4688 10.0312H0.53125C0.238 10.0312 0 9.79325 0 9.5C0 9.20675 0.238 8.96875 0.53125 8.96875H16.4688C16.762 8.96875 17 9.20675 17 9.5C17 9.79325 16.762 10.0312 16.4688 10.0312Z" fill="#062E4B"/>
<path d="M4.25 7.37504C3.95675 7.37504 3.71875 7.13704 3.71875 6.84379V4.36462C3.71875 4.07137 3.95675 3.83337 4.25 3.83337C4.54325 3.83337 4.78125 4.07137 4.78125 4.36462V6.84379C4.78125 7.13704 4.54325 7.37504 4.25 7.37504Z" fill="#062E4B"/>
<path d="M5.48967 6.13538H3.0105C2.71725 6.13538 2.47925 5.89738 2.47925 5.60413C2.47925 5.31088 2.71725 5.07288 3.0105 5.07288H5.48967C5.78292 5.07288 6.02092 5.31088 6.02092 5.60413C6.02092 5.89738 5.78292 6.13538 5.48967 6.13538Z" fill="#062E4B"/>
<path d="M3.36457 15.1666C3.22857 15.1666 3.09257 15.1149 2.98915 15.0108C2.78161 14.8033 2.78161 14.4668 2.98915 14.2593L4.75999 12.4884C4.96753 12.2809 5.30399 12.2809 5.51153 12.4884C5.71907 12.696 5.71907 13.0324 5.51153 13.24L3.74069 15.0108C3.63657 15.1149 3.50057 15.1666 3.36457 15.1666Z" fill="#062E4B"/>
<path d="M5.1354 15.1666C4.9994 15.1666 4.8634 15.1149 4.75999 15.0108L2.98915 13.24C2.78161 13.0324 2.78161 12.696 2.98915 12.4884C3.19669 12.2809 3.53315 12.2809 3.74069 12.4884L5.51153 14.2593C5.71907 14.4668 5.71907 14.8033 5.51153 15.0108C5.4074 15.1149 5.2714 15.1666 5.1354 15.1666Z" fill="#062E4B"/>
<path d="M14.3438 5.95837H11.1562C10.863 5.95837 10.625 5.72037 10.625 5.42712C10.625 5.13387 10.863 4.89587 11.1562 4.89587H14.3438C14.637 4.89587 14.875 5.13387 14.875 5.42712C14.875 5.72037 14.637 5.95837 14.3438 5.95837Z" fill="#062E4B"/>
<path d="M14.3438 15.1666H11.1562C10.863 15.1666 10.625 14.9286 10.625 14.6354C10.625 14.3421 10.863 14.1041 11.1562 14.1041H14.3438C14.637 14.1041 14.875 14.3421 14.875 14.6354C14.875 14.9286 14.637 15.1666 14.3438 15.1666Z" fill="#062E4B"/>
<path d="M14.3438 13.0416H11.1562C10.863 13.0416 10.625 12.8036 10.625 12.5104C10.625 12.2171 10.863 11.9791 11.1562 11.9791H14.3438C14.637 11.9791 14.875 12.2171 14.875 12.5104C14.875 12.8036 14.637 13.0416 14.3438 13.0416Z" fill="#062E4B"/>
</g>
<defs>
<clipPath id="clip0_144_516">
<rect width="17" height="17" fill="white" transform="translate(0 1)"/>
</clipPath>
</defs>
</svg>
