<svg width="30" height="31" viewBox="0 0 30 31" fill="none" xmlns="http://www.w3.org/2000/svg">
<path d="M26.3085 22.2437H25.0578C24.7128 22.2437 24.4335 21.9643 24.4335 21.6193C24.4335 21.2743 24.7128 20.9949 25.0578 20.9949H28.1835C28.8735 20.9949 29.4341 20.4343 29.4341 19.7443C29.4341 19.0543 28.8735 18.4937 28.1835 18.4937H26.9497V17.2431C26.9497 16.5531 26.3891 15.9924 25.6991 15.9924C25.0091 15.9924 24.4485 16.5531 24.4485 17.2431V18.5556C23.016 18.8406 21.9341 20.1043 21.9341 21.6193C21.9341 23.3424 23.3366 24.7449 25.0597 24.7449H26.3103C26.6553 24.7449 26.9347 25.0243 26.9347 25.3693C26.9347 25.7143 26.6553 25.9937 26.3103 25.9937H23.1847C22.4947 25.9937 21.9341 26.5543 21.9341 27.2443C21.9341 27.9343 22.4947 28.4949 23.1847 28.4949H24.4503V29.7456C24.4503 30.4356 25.011 30.9962 25.701 30.9962C26.391 30.9962 26.9516 30.4356 26.9516 29.7456V28.4293C28.3691 28.1331 29.436 26.8749 29.436 25.3712C29.4341 23.6462 28.0316 22.2437 26.3085 22.2437Z" fill="white"/>
<path d="M12.2088 0.994385L6.13381 1.01876C5.34631 1.01876 4.60944 1.45563 4.23444 2.14376L1.06006 7.89438L11.5976 7.87L12.2088 0.994385Z" fill="white"/>
<path d="M25.2848 7.84364L22.0729 2.09302C21.6848 1.40489 20.9611 0.968018 20.1604 0.968018L14.0854 0.992393L14.7229 7.86802L25.2848 7.84364Z" fill="white"/>
<path d="M25.6843 13.4929C23.7212 13.506 22.1218 15.006 21.9587 16.9298C20.4212 17.9423 19.433 19.6916 19.433 21.6173C19.433 22.7798 19.7837 23.8541 20.3837 24.7429C20.0705 25.1048 19.8212 25.5173 19.658 25.9804L2.6968 26.031C2.68367 26.031 2.68367 26.031 2.68367 26.031C1.6093 26.031 0.720547 25.1441 0.720547 24.0566L0.669922 9.76915L12.233 9.74477H14.108L25.6712 9.70728L25.6843 13.4929Z" fill="white"/>
</svg>
