<svg width="27" height="27" viewBox="0 0 27 27" fill="none" xmlns="http://www.w3.org/2000/svg">
<path d="M11.1804 15.8196C8.60334 13.2425 8.02144 10.6654 7.89017 9.63288C7.85348 9.34739 7.95173 9.06108 8.15598 8.85826L10.2415 6.77368C10.5483 6.46708 10.6027 5.98927 10.3728 5.62152L7.05224 0.465452C6.79784 0.0582405 6.27549 -0.0887263 5.84608 0.12609L0.515443 2.63662C0.168195 2.80761 -0.036052 3.17656 0.00337421 3.56161C0.282685 6.21506 1.43949 12.7379 7.84967 19.1485C14.2598 25.5592 20.7817 26.7155 23.4366 26.9948C23.8216 27.0342 24.1906 26.83 24.3616 26.4827L26.8721 21.1521C27.0861 20.7236 26.9401 20.2027 26.5346 19.9478L21.3785 16.6282C21.011 16.398 20.5332 16.4521 20.2264 16.7586L18.1418 18.8441C17.939 19.0483 17.6527 19.1466 17.3672 19.1099C16.3347 18.9786 13.7575 18.3967 11.1804 15.8196Z" fill="#26C165"/>
<path d="M21.4137 14.4311C20.8995 14.4311 20.4826 14.0143 20.4826 13.5001C20.4783 9.64544 17.3545 6.5217 13.4999 6.51734C12.9857 6.51734 12.5688 6.1005 12.5688 5.58631C12.5688 5.07211 12.9857 4.65527 13.4999 4.65527C18.3825 4.66066 22.3393 8.61747 22.3447 13.5001C22.3447 14.0143 21.9279 14.4311 21.4137 14.4311Z" fill="#26C165"/>
<path d="M26.0688 14.431C25.5547 14.431 25.1378 14.0142 25.1378 13.5C25.1306 7.07553 19.9244 1.86925 13.4999 1.86207C12.9857 1.86207 12.5688 1.44523 12.5688 0.931035C12.5688 0.416838 12.9857 0 13.4999 0C20.9523 0.0082098 26.9917 6.04756 26.9999 13.5C26.9999 13.7469 26.9018 13.9837 26.7272 14.1583C26.5526 14.3329 26.3158 14.431 26.0688 14.431Z" fill="#26C165"/>
</svg>
