<svg width="11" height="16" viewBox="0 0 11 16" fill="none" xmlns="http://www.w3.org/2000/svg">
<path d="M3.00136 16H3.00049C2.82789 16 2.68799 15.8601 2.68799 15.6875C2.68799 15.5149 2.82789 15.375 3.00049 15.375C3.17308 15.375 3.31343 15.5149 3.31343 15.6875C3.31343 15.8601 3.17396 16 3.00136 16Z" fill="#999999"/>
<path d="M10.1144 11.5389V10.2929C10.1144 10.2912 10.1144 10.2895 10.1144 10.2878C10.1001 9.42103 9.774 8.77975 9.11741 8.32728C8.57075 7.95056 7.88275 7.76519 7.21741 7.58594C7.02781 7.53484 6.84566 7.48578 6.6705 7.43344V6.77216C7.38337 6.29041 7.85303 5.47459 7.85303 4.55109V4.21634C7.88931 4.18909 7.92422 4.15922 7.95725 4.12628C8.30762 3.77591 8.338 3.22503 8.04878 2.83962V1.58628C8.04875 0.711594 7.33716 0 6.4625 0H3.8875C3.01284 0 2.30125 0.711594 2.30125 1.58628V2.83966C2.01203 3.22506 2.04244 3.77594 2.39316 4.12669C2.42606 4.1595 2.46087 4.18925 2.497 4.21644V4.55109C2.497 5.47444 2.96662 6.29012 3.67953 6.77191V7.43344C3.50437 7.48578 3.32219 7.53487 3.13262 7.58594C2.46728 7.76519 1.77928 7.95056 1.23262 8.32728C0.576 8.77975 0.249906 9.42103 0.235656 10.2878C0.235625 10.2895 0.235625 10.2912 0.235625 10.2929V11.5389C0.0900938 11.6859 0 11.8879 0 12.1106V12.9999C0 13.4482 0.364687 13.8129 0.812969 13.8129H1.59156C1.63256 13.8129 1.67309 13.8108 1.71309 13.807V15.2632C1.71309 15.6695 2.04322 16 2.449 16H3.77147C3.94406 16 4.08397 15.8601 4.08397 15.6875C4.08397 15.5149 3.94406 15.375 3.77147 15.375H2.449C2.38887 15.375 2.33809 15.3238 2.33809 15.2632V13.5667C2.64791 13.3374 2.84919 12.9694 2.84919 12.5553C2.84919 12.1411 2.64787 11.7732 2.33809 11.5439V10.6038C2.33809 10.5437 2.38887 10.4929 2.449 10.4929H3.90719V12.3949C3.90719 12.5105 3.97094 12.6166 4.07291 12.6708C4.11894 12.6953 4.16934 12.7074 4.21966 12.7074C4.28078 12.7074 4.34172 12.6895 4.39428 12.6541L5.17534 12.1278L5.95556 12.654C6.05137 12.7187 6.17503 12.7251 6.277 12.6709C6.37903 12.6166 6.44278 12.5105 6.44278 12.395V10.4929H7.90097C7.96156 10.4929 8.01275 10.5437 8.01275 10.6038V11.5433C7.70247 11.7726 7.50078 12.1408 7.50078 12.5553C7.50078 12.9698 7.70247 13.3381 8.01275 13.5673V15.2633C8.01275 15.3238 7.96156 15.3751 7.90097 15.3751H6.5785C6.40591 15.3751 6.266 15.515 6.266 15.6876C6.266 15.8602 6.40591 16.0001 6.5785 16.0001H7.90097C8.30722 16.0001 8.63775 15.6695 8.63775 15.2633V13.8071C8.67747 13.8109 8.71769 13.813 8.75841 13.813H9.537C9.98528 13.813 10.35 13.4483 10.35 13V12.1107C10.35 11.8879 10.2599 11.6859 10.1144 11.5389ZM2.92625 1.58628C2.92625 1.05622 3.35747 0.625 3.8875 0.625H6.4625C6.99253 0.625 7.42375 1.05622 7.42375 1.58628V2.28628C6.76881 1.82822 5.99091 1.58138 5.175 1.58138C4.35909 1.58138 3.58119 1.82819 2.92625 2.28628V1.58628ZM2.83472 3.68438C2.69453 3.54416 2.69453 3.31606 2.83469 3.17584L2.83475 3.17581C3.45987 2.55069 4.291 2.20641 5.175 2.20641C6.059 2.20641 6.89012 2.55069 7.51525 3.17581L7.51531 3.17584C7.6555 3.31606 7.65547 3.54419 7.51569 3.684C7.37553 3.82366 7.1475 3.82369 7.00772 3.68438C6.51812 3.19478 5.86744 2.92516 5.1755 2.92516C4.48356 2.92516 3.83287 3.19478 3.34366 3.684C3.20322 3.82394 2.97478 3.82394 2.83472 3.68438ZM3.122 4.55109V4.41266C3.36294 4.40462 3.60153 4.30934 3.78519 4.12631C4.15672 3.75478 4.65044 3.55016 5.17544 3.55016C5.70044 3.55016 6.19419 3.75475 6.56609 4.12669C6.74931 4.30928 6.98741 4.40438 7.228 4.41247V4.55113C7.228 5.68344 6.30722 6.60463 5.17544 6.60463C4.04319 6.60459 3.122 5.68341 3.122 4.55109ZM6.04547 7.08366V7.66297C6.04547 8.14272 5.65519 8.53303 5.17544 8.53303C4.69522 8.53303 4.30453 8.14272 4.30453 7.66297V7.08344C4.57778 7.17769 4.87059 7.22959 5.17544 7.22959C5.47997 7.22959 5.77247 7.17775 6.04547 7.08366ZM0.812969 13.1879C0.709312 13.1879 0.625 13.1036 0.625 12.9999V12.1106C0.625 12.0069 0.709312 11.9226 0.812969 11.9226H1.59156C1.94041 11.9226 2.22422 12.2064 2.22422 12.5553C2.22422 12.9041 1.94041 13.1879 1.59156 13.1879H0.812969ZM5.81781 11.8073L5.35016 11.4919C5.24459 11.4207 5.10637 11.4207 5.00081 11.4918L4.53216 11.8076V10.4929H5.81781V11.8073ZM7.901 9.86791H2.449C2.04322 9.86791 1.71309 10.198 1.71309 10.6038V11.3036C1.67309 11.2998 1.63256 11.2976 1.59156 11.2976H0.860594V10.2956C0.871969 9.63766 1.10291 9.17569 1.58725 8.84191C2.04553 8.52612 2.68081 8.35494 3.29519 8.18941C3.44084 8.15016 3.589 8.10997 3.73572 8.06781C3.91287 8.696 4.491 9.15797 5.17541 9.15797C5.85944 9.15797 6.43722 8.69603 6.61425 8.06784C6.76094 8.10997 6.90912 8.15016 7.05475 8.18941C7.66912 8.35494 8.30444 8.52609 8.76269 8.84191C9.24706 9.17569 9.478 9.63762 9.48934 10.2956V11.2976H8.75844C8.71772 11.2976 8.6775 11.2997 8.63778 11.3035V10.6038C8.63781 10.198 8.30728 9.86791 7.901 9.86791ZM9.72503 13C9.72503 13.1036 9.64072 13.188 9.53706 13.188H8.75844C8.65734 13.188 8.56206 13.1635 8.47725 13.1212C8.46981 13.117 8.46209 13.1133 8.45428 13.1097C8.25869 13.002 8.12581 12.7939 8.12581 12.5553C8.12581 12.2065 8.40963 11.9227 8.75844 11.9227H9.53703C9.64069 11.9227 9.725 12.007 9.725 12.1106V13H9.72503Z" fill="#999999"/>
</svg>
