<svg width="17" height="17" viewBox="0 0 17 17" fill="none" xmlns="http://www.w3.org/2000/svg">
<path d="M8.5 13.1347C8.95844 13.1347 9.33008 12.7703 9.33008 12.3209C9.33008 11.8714 8.95844 11.5071 8.5 11.5071C8.04156 11.5071 7.66992 11.8714 7.66992 12.3209C7.66992 12.7703 8.04156 13.1347 8.5 13.1347Z" fill="#B9BEC1"/>
<path d="M8.5 -2.00773e-07C3.80229 -8.98114e-08 8.80358e-08 3.72712 1.96836e-07 8.33333C3.05622e-07 12.9389 3.80166 16.6667 8.5 16.6667C13.1977 16.6667 17 12.9395 17 8.33333C17 3.72773 13.1983 -3.11749e-07 8.5 -2.00773e-07ZM8.5 15.3646C4.53631 15.3646 1.32813 12.2198 1.32813 8.33333C1.32813 4.44736 4.53578 1.30208 8.5 1.30208C12.4637 1.30208 15.6719 4.44684 15.6719 8.33333C15.6719 12.2193 12.4642 15.3646 8.5 15.3646Z" fill="#B9BEC1"/>
<path d="M8.5 4.18286C7.03534 4.18286 5.84375 5.35109 5.84375 6.78703C5.84375 7.1466 6.14105 7.43807 6.50781 7.43807C6.87457 7.43807 7.17188 7.1466 7.17188 6.78703C7.17188 6.06906 7.76767 5.48494 8.5 5.48494C9.23233 5.48494 9.82813 6.06906 9.82813 6.78703C9.82813 7.505 9.23233 8.08911 8.5 8.08911C8.13324 8.08911 7.83594 8.38058 7.83594 8.74015L7.83594 10.3678C7.83594 10.7273 8.13324 11.0188 8.5 11.0188C8.86676 11.0188 9.16406 10.7273 9.16406 10.3678L9.16406 9.3088C10.3084 9.01899 11.1563 7.99826 11.1563 6.78703C11.1563 5.35109 9.96466 4.18286 8.5 4.18286Z" fill="#B9BEC1"/>
</svg>
