<svg width="14" height="19" viewBox="0 0 14 19" fill="none" xmlns="http://www.w3.org/2000/svg">
<path d="M7 18.0589C5.73693 16.9815 4.56619 15.8004 3.5 14.5279C1.9 12.6169 8.83662e-07 9.77089 8.83662e-07 7.05889C-0.00141728 4.22643 1.70425 1.67228 4.32107 0.588286C6.93789 -0.495707 9.95007 0.104129 11.952 2.10789C13.2685 3.4185 14.0059 5.20128 14 7.05889C14 9.77089 12.1 12.6169 10.5 14.5279C9.43382 15.8004 8.26307 16.9815 7 18.0589ZM7 2.05889C4.23995 2.06219 2.00331 4.29883 2 7.05889C2 8.22489 2.527 10.2439 5.035 13.2449C5.65314 13.9829 6.30902 14.6885 7 15.3589C7.69105 14.6893 8.34724 13.9848 8.966 13.2479C11.473 10.2429 12 8.22389 12 7.05889C11.9967 4.29883 9.76006 2.06219 7 2.05889ZM7 10.0589C5.34315 10.0589 4 8.71574 4 7.05889C4 5.40203 5.34315 4.05889 7 4.05889C8.65686 4.05889 10 5.40203 10 7.05889C10 7.85454 9.68393 8.6176 9.12132 9.18021C8.55871 9.74282 7.79565 10.0589 7 10.0589Z" fill="#2E3A59"/>
</svg>
