<svg width="54" height="54" viewBox="0 0 54 54" fill="none" xmlns="http://www.w3.org/2000/svg">
<circle cx="27" cy="27" r="27" fill="#062E4B" fill-opacity="0.1"/>
<g clip-path="url(#clip0_150_652)">
<path d="M39.4685 29.3977C38.6489 29.3977 37.8861 29.6147 37.2028 29.9657L35.8507 28.3588C36.4501 28.0045 37.0986 27.7319 37.784 27.5785C38.3428 27.4527 38.8967 27.4066 39.474 27.398C40.2196 27.4037 40.9532 27.1096 41.5022 26.5656C42.0748 25.999 42.403 25.2106 42.403 24.2785C42.403 19.1548 38.0867 15.3921 33.5294 15.3921H32.399C31.8462 15.3921 31.3986 15.8397 31.3986 16.3925C31.3986 16.9453 31.8462 17.3929 32.399 17.3929H33.5294C33.8275 17.3929 34.1117 17.4442 34.3998 17.4812V19.4143C33.8189 19.4669 33.2718 19.6467 32.7541 19.8876C32.7476 19.8801 32.7393 19.8751 32.733 19.8676C31.9119 20.2516 31.204 20.8521 30.6913 21.6212L28.4141 25.0366C28.2578 25.27 28.0116 25.4274 27.7331 25.4704C25.7078 25.7817 23.9521 27.0728 23.0302 28.9582C23.8847 30.2353 24.3958 31.7567 24.3958 33.3993H22.3283C22.3283 30.0894 19.6358 27.3969 16.3259 27.3969C13.016 27.3969 10.3235 30.0894 10.3235 33.3993C10.3235 36.7093 13.016 39.4017 16.3259 39.4017C18.9309 39.4017 21.131 37.724 21.9597 35.4001H31.3986C31.9515 35.4001 32.399 34.9526 32.399 34.3997C32.399 33.8438 32.4655 33.2761 32.5955 32.7136C32.868 31.5455 33.4755 30.4823 34.2909 29.6137L35.6412 31.2182C34.9188 32.0855 34.4665 33.1854 34.4665 34.3997C34.4665 37.1576 36.7107 39.4017 39.4685 39.4017C42.2264 39.4017 44.4705 37.1576 44.4705 34.3997C44.4705 31.6419 42.2264 29.3977 39.4685 29.3977ZM16.3259 37.4009C14.119 37.4009 12.3243 35.6062 12.3243 33.3993C12.3243 31.1925 14.119 29.3977 16.3259 29.3977C18.5328 29.3977 20.3275 31.1925 20.3275 33.3993H17.3263C16.7743 33.3993 16.3259 32.951 16.3259 32.3989C16.3259 31.8461 15.8783 31.3985 15.3255 31.3985C14.7727 31.3985 14.3251 31.8461 14.3251 32.3989C14.3251 34.0538 15.6715 35.4001 17.3263 35.4001H19.771C19.077 36.5905 17.8007 37.4009 16.3259 37.4009ZM39.4685 37.4009C37.8137 37.4009 36.4673 36.0546 36.4673 34.3997C36.4673 33.8201 36.6401 33.2831 36.9258 32.8236L38.687 35.025C39.0348 35.4587 39.6647 35.5241 40.0938 35.1813C40.5247 34.8353 40.595 34.2064 40.2501 33.7745L38.4911 31.5757C38.799 31.4686 39.1244 31.3985 39.4685 31.3985C41.1234 31.3985 42.4697 32.7449 42.4697 34.3997C42.4697 36.0546 41.1234 37.4009 39.4685 37.4009Z" fill="#062E4B"/>
<path d="M27.3126 23.0826L29.0266 20.5115C29.5744 19.6893 30.2929 19.0213 31.1092 18.5026C30.0113 17.8094 28.7457 17.3931 27.397 17.3931C25.0333 17.3931 22.8498 18.598 21.5647 20.5303L23.1648 21.4905C24.4502 22.2617 25.8578 22.778 27.3126 23.0826Z" fill="#062E4B"/>
<path d="M22.1353 23.2057L15.7155 19.3938H11.3239C10.7711 19.3938 10.3235 19.8414 10.3235 20.3942C10.3235 23.1521 12.5676 25.3962 15.3255 25.3962C17.3266 25.3962 19.4024 25.4397 21.6265 27.373C21.6351 27.3572 21.6351 27.3392 21.6447 27.3238C22.4208 26.0759 23.5166 25.1083 24.7728 24.4284C23.8633 24.0957 22.9728 23.708 22.1353 23.2057Z" fill="#062E4B"/>
</g>
<defs>
<clipPath id="clip0_150_652">
<rect width="34.1471" height="34.1471" fill="white" transform="translate(10.3235 10.3235)"/>
</clipPath>
</defs>
</svg>
