<svg width="34" height="34" viewBox="0 0 34 34" fill="none" xmlns="http://www.w3.org/2000/svg">
<rect width="34" height="34" rx="10" fill="#DAEEC3"/>
<path d="M13.25 14C13.25 11.9289 14.9289 10.25 17 10.25C19.0711 10.25 20.75 11.9289 20.75 14C20.75 16.0711 19.0711 17.75 17 17.75C14.9289 17.75 13.25 16.0711 13.25 14ZM17 16.25C18.2426 16.25 19.25 15.2426 19.25 14C19.25 12.7574 18.2426 11.75 17 11.75C15.7574 11.75 14.75 12.7574 14.75 14C14.75 15.2426 15.7574 16.25 17 16.25Z" fill="#26C165"/>
<path d="M12.7574 20.2574C11.6321 21.3826 11 22.9087 11 24.5H12.5C12.5 23.3065 12.9741 22.1619 13.818 21.318C14.6619 20.4741 15.8065 20 17 20C18.1935 20 19.3381 20.4741 20.182 21.318C21.0259 22.1619 21.5 23.3065 21.5 24.5H23C23 22.9087 22.3679 21.3826 21.2426 20.2574C20.1174 19.1321 18.5913 18.5 17 18.5C15.4087 18.5 13.8826 19.1321 12.7574 20.2574Z" fill="#26C165"/>
</svg>
