<svg width="34" height="34" viewBox="0 0 34 34" fill="none" xmlns="http://www.w3.org/2000/svg">
<rect width="34" height="34" rx="10" fill="#DAEEC3"/>
<path d="M12.7255 23H11C11 20.1281 13.3176 17.8 16.1766 17.8C19.0356 17.8 21.3532 20.1281 21.3532 23H19.6277C19.6277 21.0854 18.0826 19.5333 16.1766 19.5333C14.2706 19.5333 12.7255 21.0854 12.7255 23ZM23.0736 19.8887L20.7389 17.5487L21.9572 16.3197L23.0719 17.4395L26.7818 13.7197L28 14.9469L23.0719 19.8869L23.0736 19.8887ZM16.1766 16.9333C14.2706 16.9333 12.7255 15.3813 12.7255 13.4667C12.7255 11.5521 14.2706 10 16.1766 10C18.0826 10 19.6277 11.5521 19.6277 13.4667C19.6253 15.3803 18.0816 16.9309 16.1766 16.9333ZM16.1766 11.7333C15.2339 11.7343 14.4665 12.495 14.453 13.4418C14.4395 14.3887 15.1849 15.1711 16.1272 15.1992C17.0694 15.2273 17.8597 14.4906 17.9022 13.5447V13.8913V13.4667C17.9022 12.5094 17.1296 11.7333 16.1766 11.7333Z" fill="#26C165"/>
</svg>
