<svg width="11" height="15" viewBox="0 0 11 15" fill="none" xmlns="http://www.w3.org/2000/svg">
<path d="M5.17641 14.9178H5.17554C5.00294 14.9178 4.86304 14.7875 4.86304 14.6268C4.86304 14.4661 5.00294 14.3359 5.17554 14.3359C5.34813 14.3359 5.48847 14.4661 5.48847 14.6268C5.48847 14.7875 5.349 14.9178 5.17641 14.9178Z" fill="#26C165"/>
<path d="M10.1144 10.7591V9.59726C10.1144 9.59566 10.1144 9.59406 10.1144 9.59245C10.1001 8.78431 9.774 8.18637 9.11741 7.76448C8.57075 7.41322 7.88275 7.24038 7.21741 7.07324C7.02781 7.0256 6.84566 6.97986 6.6705 6.93105V6.31446C7.38337 5.86527 7.85303 5.10459 7.85303 4.24351V3.93138C7.88931 3.90597 7.92422 3.87812 7.95725 3.84741C8.30762 3.52071 8.338 3.00707 8.04878 2.64771V1.47907C8.04875 0.663501 7.33716 0 6.4625 0H3.8875C3.01284 0 2.30125 0.663501 2.30125 1.47907V2.64774C2.01203 3.0071 2.04244 3.52074 2.39316 3.84779C2.42606 3.87838 2.46087 3.90612 2.497 3.93147V4.24351C2.497 5.10445 2.96662 5.86501 3.67953 6.31423V6.93105C3.50437 6.97986 3.32219 7.02563 3.13262 7.07324C2.46728 7.24038 1.77928 7.41322 1.23262 7.76448C0.576 8.18637 0.249906 8.78431 0.235656 9.59245C0.235625 9.59406 0.235625 9.59566 0.235625 9.59726V10.7591C0.0900938 10.8961 0 11.0844 0 11.2921V12.1213C0 12.5393 0.364687 12.8794 0.812969 12.8794H1.59156C1.63256 12.8794 1.67309 12.8774 1.71309 12.8738V14.2317C1.71309 14.6105 2.04322 14.9187 2.449 14.9187H3.77147C3.94406 14.9187 4.08397 14.7882 4.08397 14.6273C4.08397 14.4664 3.94406 14.3359 3.77147 14.3359H2.449C2.38887 14.3359 2.33809 14.2882 2.33809 14.2317V12.6498C2.64791 12.436 2.84919 12.0929 2.84919 11.7067C2.84919 11.3206 2.64787 10.9775 2.33809 10.7637V9.88715C2.33809 9.83109 2.38887 9.78374 2.449 9.78374H3.90719V11.5572C3.90719 11.665 3.97094 11.7639 4.07291 11.8145C4.11894 11.8373 4.16934 11.8486 4.21966 11.8486C4.28078 11.8486 4.34172 11.8319 4.39428 11.7989L5.17534 11.3082L5.95556 11.7988C6.05137 11.8591 6.17503 11.8651 6.277 11.8145C6.37903 11.7639 6.44278 11.665 6.44278 11.5573V9.78377H7.90097C7.96156 9.78377 8.01275 9.83112 8.01275 9.88718V10.7632C7.70247 10.9769 7.50078 11.3202 7.50078 11.7068C7.50078 12.0933 7.70247 12.4366 8.01275 12.6504V14.2317C8.01275 14.2882 7.96156 14.3359 7.90097 14.3359H6.5785C6.40591 14.3359 6.266 14.4664 6.266 14.6273C6.266 14.7882 6.40591 14.9187 6.5785 14.9187H7.90097C8.30722 14.9187 8.63775 14.6105 8.63775 14.2317V12.8739C8.67747 12.8775 8.71769 12.8794 8.75841 12.8794H9.537C9.98528 12.8794 10.35 12.5394 10.35 12.1214V11.2922C10.35 11.0845 10.2599 10.8961 10.1144 10.7591ZM2.92625 1.47907C2.92625 0.984834 3.35747 0.582759 3.8875 0.582759H6.4625C6.99253 0.582759 7.42375 0.984834 7.42375 1.47907V2.13176C6.76881 1.70466 5.99091 1.4745 5.175 1.4745C4.35909 1.4745 3.58119 1.70463 2.92625 2.13176V1.47907ZM2.83472 3.43537C2.69453 3.30463 2.69453 3.09195 2.83469 2.9612L2.83475 2.96118C3.45987 2.3783 4.291 2.05729 5.175 2.05729C6.059 2.05729 6.89012 2.3783 7.51525 2.96118L7.51531 2.9612C7.6555 3.09195 7.65547 3.30465 7.51569 3.43502C7.37553 3.56523 7.1475 3.56526 7.00772 3.43537C6.51812 2.97886 5.86744 2.72746 5.1755 2.72746C4.48356 2.72746 3.83287 2.97886 3.34366 3.43502C3.20322 3.5655 2.97478 3.5655 2.83472 3.43537ZM3.122 4.24351V4.11443C3.36294 4.10694 3.60153 4.0181 3.78519 3.84744C4.15672 3.50101 4.65044 3.31022 5.17544 3.31022C5.70044 3.31022 6.19419 3.50099 6.56609 3.84779C6.74931 4.01804 6.98741 4.10671 7.228 4.11425V4.24354C7.228 5.29932 6.30722 6.15825 5.17544 6.15825C4.04319 6.15822 3.122 5.29929 3.122 4.24351ZM6.04547 6.60491V7.14507C6.04547 7.59239 5.65519 7.95633 5.17544 7.95633C4.69522 7.95633 4.30453 7.59239 4.30453 7.14507V6.6047C4.57778 6.69258 4.87059 6.74098 5.17544 6.74098C5.47997 6.74098 5.77247 6.69264 6.04547 6.60491ZM0.812969 12.2966C0.709312 12.2966 0.625 12.218 0.625 12.1213V11.2921C0.625 11.1954 0.709312 11.1168 0.812969 11.1168H1.59156C1.94041 11.1168 2.22422 11.3815 2.22422 11.7067C2.22422 12.032 1.94041 12.2966 1.59156 12.2966H0.812969ZM5.81781 11.0093L5.35016 10.7152C5.24459 10.6488 5.10637 10.6488 5.00081 10.7152L4.53216 11.0096V9.78377H5.81781V11.0093ZM7.901 9.20098H2.449C2.04322 9.20098 1.71309 9.5088 1.71309 9.88715V10.5396C1.67309 10.5361 1.63256 10.5341 1.59156 10.5341H0.860594V9.5998C0.871969 8.9863 1.10291 8.55555 1.58725 8.24433C2.04553 7.94989 2.68081 7.79027 3.29519 7.63593C3.44084 7.59933 3.589 7.56186 3.73572 7.52255C3.91287 8.10828 4.491 8.53903 5.17541 8.53903C5.85944 8.53903 6.43722 8.10831 6.61425 7.52258C6.76094 7.56186 6.90912 7.59933 7.05475 7.63593C7.66912 7.79027 8.30444 7.94986 8.76269 8.24433C9.24706 8.55555 9.478 8.98627 9.48934 9.5998V10.534H8.75844C8.71772 10.534 8.6775 10.536 8.63778 10.5396V9.88715C8.63781 9.5088 8.30728 9.20098 7.901 9.20098ZM9.72503 12.1214C9.72503 12.218 9.64072 12.2967 9.53706 12.2967H8.75844C8.65734 12.2967 8.56206 12.2739 8.47725 12.2344C8.46981 12.2305 8.46209 12.2271 8.45428 12.2237C8.25869 12.1233 8.12581 11.9293 8.12581 11.7068C8.12581 11.3815 8.40963 11.1169 8.75844 11.1169H9.53703C9.64069 11.1169 9.725 11.1955 9.725 11.2921V12.1214H9.72503Z" fill="#26C165"/>
</svg>
