<svg width="54" height="54" viewBox="0 0 54 54" fill="none" xmlns="http://www.w3.org/2000/svg">
<circle cx="27" cy="27" r="27" fill="#FFA824" fill-opacity="0.1"/>
<g clip-path="url(#clip0_150_651)">
<path d="M40.5793 13.4208C38.45 12.7107 36.142 13.2557 34.5548 14.8429L28.7562 20.6414L16.6746 15.4637L14.3734 17.7648L24.1537 25.2439L18.8674 30.5302L15.4155 29.3795L13.1143 31.6809L18.8674 35.1327L22.3193 40.8859L24.6205 38.5846L23.4699 35.1328L28.7562 29.8465L36.2353 39.6268L38.5365 37.3255L33.3588 25.244L39.1574 19.4454C40.7446 17.8582 41.2895 15.5502 40.5793 13.4208Z" fill="#FFA824"/>
<path d="M39.1119 27.545C38.4764 26.9095 37.4461 26.9095 36.8106 27.545L36.3242 28.0314L37.7049 31.2532L39.1119 29.8462C39.7473 29.2107 39.7473 28.1805 39.1119 27.545Z" fill="#FFA824"/>
<path d="M26.455 14.888C25.8196 14.2525 24.7893 14.2525 24.1538 14.888L22.7468 16.295L25.9686 17.6757L26.455 17.1893C27.0906 16.5538 27.0906 15.5236 26.455 14.888Z" fill="#FFA824"/>
</g>
<defs>
<clipPath id="clip0_150_651">
<rect width="27.7714" height="27.7714" fill="white" transform="translate(13.1143 13.1143)"/>
</clipPath>
</defs>
</svg>
