<svg width="54" height="54" viewBox="0 0 54 54" fill="none" xmlns="http://www.w3.org/2000/svg">
<circle cx="27" cy="27" r="27" fill="#FFA824" fill-opacity="0.1"/>
<g clip-path="url(#clip0_150_713)">
<path d="M32.4014 24.3345C32.0291 25.758 31.1603 26.0716 30.6967 26.1345C30.4111 26.7054 29.7835 27.8721 29.1556 28.4583C28.9046 28.6926 28.5785 28.8903 28.1862 29.0459C27.6855 29.2446 27.1566 29.3454 26.6145 29.3454C26.0724 29.3454 25.5435 29.2446 25.0428 29.0459C24.6506 28.8904 24.3244 28.6927 24.0734 28.4583C23.4454 27.8722 22.8178 26.7054 22.5322 26.1345C22.0688 26.0716 21.2 25.7582 20.8276 24.3345C20.6285 23.5733 20.6795 22.9527 20.9793 22.4901C21.1118 22.2856 21.2724 22.1463 21.4219 22.052C21.4224 21.9 21.4287 21.7098 21.4463 21.4934C21.1771 21.1192 20.811 20.3119 21.2644 19.0051C21.7436 17.6236 22.8271 17.4103 23.35 17.3918C23.5268 17.0631 23.8608 16.5965 24.4674 16.1675C25.1407 15.6911 26.0199 15.4287 26.9429 15.4287C28.0788 15.4287 29.2218 15.8285 30.2482 16.5848C31.9124 17.811 31.7699 20.5311 31.7291 21.025C31.7895 21.439 31.8062 21.7981 31.807 22.0519C31.9565 22.1462 32.1171 22.2855 32.2496 22.4899C32.5494 22.9527 32.6004 23.5732 32.4014 24.3345ZM37.2684 34.9349V38.796C37.2684 39.098 37.0235 39.343 36.7214 39.343H16.5075C16.2054 39.343 15.9604 39.098 15.9604 38.796V34.9349C15.9604 33.3531 16.9094 31.9514 18.3781 31.3638L23.1609 29.4507C23.2985 29.3958 23.4525 29.3988 23.5879 29.4596C23.7231 29.5202 23.828 29.6332 23.8783 29.7726L25.0807 33.0967L25.3188 32.4123L24.94 31.4864C24.8711 31.3177 24.8906 31.1257 24.9922 30.9743C25.0939 30.823 25.2641 30.7322 25.4464 30.7322H27.7826C27.9649 30.7322 28.1353 30.823 28.2368 30.9743C28.3384 31.1257 28.3579 31.3177 28.289 31.4864L27.9102 32.4123L28.1483 33.0967L29.3507 29.7726C29.401 29.6332 29.5059 29.5202 29.6411 29.4596C29.7765 29.3989 29.9306 29.3959 30.0682 29.4507L34.8509 31.3638C36.3196 31.9514 37.2684 33.3531 37.2684 34.9349ZM34.3565 35.3547C34.3565 35.0526 34.1115 34.8076 33.8094 34.8076H30.1366C29.8346 34.8076 29.5896 35.0526 29.5896 35.3547V37.0603C29.5896 37.3624 29.8346 37.6074 30.1366 37.6074H33.8094C34.1115 37.6074 34.3565 37.3624 34.3565 37.0603V35.3547Z" fill="#FFA824"/>
</g>
<defs>
<clipPath id="clip0_150_713">
<rect width="23.9143" height="23.9143" fill="white" transform="translate(14.6572 15.4287)"/>
</clipPath>
</defs>
</svg>
