<svg width="54" height="54" viewBox="0 0 54 54" fill="none" xmlns="http://www.w3.org/2000/svg">
<circle cx="27" cy="27" r="27" fill="#062E4B" fill-opacity="0.1"/>
<g clip-path="url(#clip0_150_681)">
<path d="M9.64269 17.1899H15.2077C15.7079 17.1899 16.1151 17.597 16.1151 18.0973C16.1151 18.1755 16.0002 17.1136 17.8442 33.7104C16.8331 34.1081 16.1151 35.0934 16.1151 36.2441C16.1151 37.745 17.3362 38.9654 18.8371 38.9654H19.9004C19.7997 39.2494 19.7444 39.5554 19.7444 39.8735C19.7444 41.3744 20.9656 42.5955 22.4664 42.5955C23.9673 42.5955 25.1885 41.3744 25.1885 39.8735C25.1885 39.5554 25.1332 39.2494 25.0325 38.9654H30.7887C30.6878 39.2494 30.6325 39.5554 30.6325 39.8735C30.6325 41.3744 31.8536 42.5955 33.3545 42.5955C34.8554 42.5955 36.0766 41.3744 36.0766 39.8735C36.0766 38.3726 34.8554 37.1514 33.3545 37.1514H18.8371C18.3369 37.1514 17.9297 36.7443 17.9297 36.2441C17.9297 35.7439 18.3369 35.3368 18.8371 35.3368H35.4466C36.7828 35.3368 37.912 34.3803 38.1315 33.0623L39.6936 23.6904C39.7373 23.4274 39.6634 23.1583 39.4909 22.9549C39.3184 22.7514 39.0653 22.634 38.7986 22.634H36.0766V18.0973C36.0766 17.5961 35.6704 17.1899 35.1692 17.1899H27.9105C27.4093 17.1899 27.0031 17.5961 27.0031 18.0973V19.0046H22.4664C21.9653 19.0046 21.5591 19.4108 21.5591 19.912V22.634H18.4394L17.9293 18.042C17.8995 16.5666 16.6902 15.3752 15.2077 15.3752H9.64269C9.14153 15.3752 8.73535 15.7814 8.73535 16.2826C8.73535 16.7837 9.14153 17.1899 9.64269 17.1899ZM23.3738 39.8735C23.3738 40.3737 22.9667 40.7808 22.4664 40.7808C21.9662 40.7808 21.5591 40.3737 21.5591 39.8735C21.5591 39.3732 21.9662 38.9654 22.4664 38.9654C22.9667 38.9654 23.3738 39.3732 23.3738 39.8735ZM33.3545 40.7808C32.8543 40.7808 32.4472 40.3737 32.4472 39.8735C32.4472 39.3716 32.8543 38.9661 33.3545 38.9661C33.8548 38.9661 34.2619 39.3732 34.2619 39.8735C34.2619 40.3737 33.8548 40.7808 33.3545 40.7808ZM28.8178 19.0046H34.2619V22.634H28.8178V19.0046ZM23.3738 20.8193H27.0031V22.634H23.3738V20.8193ZM37.7275 24.4487L36.3417 32.7638C36.2684 33.2033 35.892 33.5221 35.4466 33.5221H19.6492L18.641 24.4487H37.7275Z" fill="#062E4B"/>
<path d="M22.4664 31.7072C22.9676 31.7072 23.3738 31.3011 23.3738 30.7999V27.1705C23.3738 26.6694 22.9676 26.2632 22.4664 26.2632C21.9653 26.2632 21.5591 26.6694 21.5591 27.1705V30.7999C21.5591 31.3011 21.9653 31.7072 22.4664 31.7072Z" fill="#062E4B"/>
<path d="M27.9105 31.7072C28.4117 31.7072 28.8179 31.3011 28.8179 30.7999V27.1705C28.8179 26.6694 28.4117 26.2632 27.9105 26.2632C27.4094 26.2632 27.0032 26.6694 27.0032 27.1705V30.7999C27.0032 31.3011 27.4094 31.7072 27.9105 31.7072Z" fill="#062E4B"/>
<path d="M33.3546 31.7072C33.8558 31.7072 34.2619 31.3011 34.2619 30.7999V27.1705C34.2619 26.6694 33.8558 26.2632 33.3546 26.2632C32.8534 26.2632 32.4473 26.6694 32.4473 27.1705V30.7999C32.4473 31.3011 32.8534 31.7072 33.3546 31.7072Z" fill="#062E4B"/>
</g>
<defs>
<clipPath id="clip0_150_681">
<rect width="30.9706" height="30.9706" fill="white" transform="translate(8.73535 13.5)"/>
</clipPath>
</defs>
</svg>
