<svg width="17" height="17" viewBox="0 0 17 17" fill="none" xmlns="http://www.w3.org/2000/svg">
<path d="M7.00782 14.001C3.14773 14.001 0.00732422 10.8606 0.00732422 7.0005C0.00732422 3.1404 3.14773 0 7.00782 0C10.8679 0 14.0083 3.1404 14.0083 7.0005C14.0083 10.8606 10.8679 14.001 7.00782 14.001ZM7.00782 1.32711C3.8795 1.32711 1.33443 3.87217 1.33443 7.0005C1.33443 10.1288 3.8795 12.6739 7.00782 12.6739C10.1362 12.6739 12.6812 10.1288 12.6812 7.0005C12.6812 3.87217 10.1362 1.32711 7.00782 1.32711ZM16.8 16.8056C17.0591 16.5465 17.0591 16.1263 16.8 15.8672L13.8306 12.8978C13.5714 12.6387 13.1513 12.6387 12.8922 12.8978C12.633 13.157 12.633 13.5771 12.8922 13.8362L15.8616 16.8056C15.9911 16.9352 16.161 17 16.3308 17C16.5006 17 16.6704 16.9352 16.8 16.8056Z" fill="#F47F1F"/>
</svg>
