<svg width="53" height="53" viewBox="0 0 53 53" fill="none" xmlns="http://www.w3.org/2000/svg">
<circle cx="26.5" cy="26.5" r="26.5" fill="#FFA824" fill-opacity="0.1"/>
<g clip-path="url(#clip0_150_656)">
<path fill-rule="evenodd" clip-rule="evenodd" d="M33.5922 16.8058C36.4806 17.4761 37.5854 19.165 38.9707 21.4896H33.5922V16.8058ZM16.7124 21.6848C17.2779 21.6848 17.6884 21.9578 17.6884 22.5958C17.6884 23.1339 17.253 23.5703 16.7152 23.5718H10.8188C10.2797 23.5718 9.84277 24.009 9.84277 24.5478C9.84277 25.0869 10.2797 25.5238 10.8188 25.5238H19.6028C20.147 25.5238 20.5826 25.9605 20.5826 26.4998C20.5826 27.0389 20.1457 27.4758 19.6066 27.4758H10.8188C10.2797 27.4758 9.84277 27.9127 9.84277 28.4518C9.84277 28.9909 10.2797 29.4278 10.8188 29.4278H12.966V32.3558C12.966 32.8949 13.4029 33.3318 13.942 33.3318H15.9039C16.2536 35.0546 17.7759 36.3249 19.5703 36.3249C21.3647 36.3249 22.8869 35.0546 23.2367 33.3318H33.1467C33.4964 35.0546 35.0186 36.3249 36.813 36.3249C38.6075 36.3249 40.1297 35.0546 40.4794 33.3318H42.1811C42.7201 33.3318 43.1571 32.8949 43.1571 32.3558V26.4998C43.1571 23.6361 40.1365 23.446 40.1337 23.4417H32.6162C32.0771 23.4417 31.6402 23.0047 31.6402 22.4656V16.6096H13.942C13.4029 16.6096 12.966 17.0465 12.966 17.5856V19.7328H11.7948C11.2557 19.7328 10.8188 20.1697 10.8188 20.7088C10.8188 21.2479 11.2557 21.6848 11.7948 21.6848H16.7124ZM38.0783 31.3183C38.777 32.017 38.777 33.1504 38.0783 33.8491C36.9543 34.973 35.0237 34.1734 35.0237 32.5836C35.0237 30.994 36.9543 30.1944 38.0783 31.3183ZM20.8355 31.3183C21.5342 32.017 21.5342 33.1504 20.8355 33.8491C19.7116 34.973 17.7809 34.1734 17.7809 32.5836C17.7809 30.994 19.7116 30.1944 20.8355 31.3183Z" fill="#FFA824"/>
</g>
<defs>
<clipPath id="clip0_150_656">
<rect width="33.3143" height="33.3143" fill="white" transform="translate(9.84277 9.84277)"/>
</clipPath>
</defs>
</svg>
