<svg width="21" height="21" viewBox="0 0 21 21" fill="none" xmlns="http://www.w3.org/2000/svg">
<g clip-path="url(#clip0_144_494)">
<path d="M10.5 11.8285C4.1903 11.8285 0.715332 14.8135 0.715332 20.2336C0.715332 20.657 1.05843 21.0001 1.48175 21.0001H19.5182C19.9416 21.0001 20.2847 20.657 20.2847 20.2336C20.2847 14.8137 16.8097 11.8285 10.5 11.8285ZM2.27606 19.4672C2.57752 15.4146 5.34046 13.3614 10.5 13.3614C15.6596 13.3614 18.4226 15.4146 18.7243 19.4672H2.27606Z" fill="#062E4B"/>
<path d="M10.4999 0C7.60158 0 5.41602 2.22953 5.41602 5.18589C5.41602 8.22884 7.69665 10.7041 10.4999 10.7041C13.3032 10.7041 15.5839 8.22884 15.5839 5.18614C15.5839 2.22953 13.3983 0 10.4999 0ZM10.4999 9.17155C8.54174 9.17155 6.94885 7.38371 6.94885 5.18614C6.94885 3.06928 8.44236 1.53284 10.4999 1.53284C12.5246 1.53284 14.051 3.10324 14.051 5.18614C14.051 7.38371 12.4582 9.17155 10.4999 9.17155Z" fill="#062E4B"/>
</g>
<defs>
<clipPath id="clip0_144_494">
<rect width="21" height="21" fill="white"/>
</clipPath>
</defs>
</svg>
