<svg width="31" height="31" viewBox="0 0 31 31" fill="none" xmlns="http://www.w3.org/2000/svg">
<path d="M21.6 18.161C21.27 17.9915 19.6262 17.1862 19.3204 17.0772C19.0146 16.9622 18.7906 16.9077 18.5696 17.2468C18.3456 17.5828 17.7099 18.3306 17.5101 18.5576C17.3163 18.7816 17.1195 18.8089 16.7895 18.6424C14.8278 17.6615 13.5412 16.8926 12.2485 14.6735C11.9064 14.0832 12.5906 14.1256 13.2294 12.8511C13.3384 12.6271 13.2839 12.4363 13.1991 12.2668C13.1144 12.0973 12.4483 10.4564 12.1698 9.7874C11.9004 9.13652 11.6219 9.22734 11.419 9.21523C11.2253 9.20312 11.0043 9.20312 10.7803 9.20312C10.5562 9.20312 10.196 9.28789 9.89023 9.61787C9.58447 9.95391 8.72168 10.7622 8.72168 12.403C8.72168 14.0438 9.91748 15.6332 10.081 15.8572C10.2505 16.0812 12.4332 19.4477 15.7845 20.8978C17.9036 21.812 18.7331 21.8907 19.7927 21.7333C20.4375 21.6364 21.7665 20.928 22.042 20.1439C22.3175 19.3629 22.3175 18.6938 22.2357 18.5546C22.154 18.4062 21.93 18.3215 21.6 18.161Z" fill="white"/>
<path d="M28.0092 10.2445C27.325 8.61885 26.3441 7.15967 25.0938 5.90635C23.8435 4.65605 22.3843 3.67217 20.7556 2.99102C19.0906 2.2917 17.3226 1.9375 15.5002 1.9375H15.4396C13.6051 1.94658 11.828 2.30986 10.1569 3.02432C8.54334 3.71455 7.09627 4.69541 5.85808 5.9457C4.6199 7.196 3.64812 8.64912 2.97605 10.2688C2.27976 11.9459 1.92859 13.729 1.93767 15.5636C1.94675 17.6645 2.44929 19.7504 3.3908 21.6152V26.2168C3.3908 26.9857 4.01443 27.6094 4.78338 27.6094H9.38797C11.2528 28.5509 13.3386 29.0534 15.4396 29.0625H15.5032C17.3166 29.0625 19.0755 28.7113 20.7314 28.0241C22.3511 27.349 23.8072 26.3803 25.0545 25.1421C26.3048 23.9039 27.2886 22.4568 27.9759 20.8433C28.6903 19.1722 29.0536 17.3951 29.0627 15.5605C29.0718 13.7169 28.7145 11.9277 28.0092 10.2445ZM23.4348 23.5043C21.3127 25.6053 18.4972 26.7617 15.5002 26.7617H15.4487C13.6232 26.7526 11.8098 26.2985 10.2084 25.4448L9.95408 25.3086H5.69158V21.0461L5.55535 20.7918C4.70164 19.1903 4.24754 17.377 4.23845 15.5515C4.22634 12.5332 5.37976 9.69961 7.49588 7.56533C9.60896 5.43105 12.4335 4.25039 15.4517 4.23828H15.5032C17.0169 4.23828 18.4851 4.53193 19.8686 5.11318C21.2188 5.6793 22.4298 6.49365 23.4712 7.53506C24.5095 8.57344 25.3269 9.7874 25.893 11.1376C26.4803 12.5362 26.774 14.0196 26.7679 15.5515C26.7498 18.5667 25.5661 21.3912 23.4348 23.5043Z" fill="white"/>
</svg>
