<svg width="21" height="21" viewBox="0 0 21 21" fill="none" xmlns="http://www.w3.org/2000/svg">
<path d="M10.4895 20.9755C4.7379 20.9698 0.0794232 16.3035 0.0832543 10.5519C0.0870901 4.80033 4.75178 0.140298 10.5034 0.142213C16.255 0.144128 20.9166 4.80726 20.9166 10.5589C20.9131 16.3145 16.2451 20.9778 10.4895 20.9755ZM2.16659 10.738C2.21588 15.3227 5.95941 19.0063 10.5442 18.9818C15.1291 18.957 18.8328 15.2333 18.8328 10.6485C18.8328 6.06357 15.1291 2.33989 10.5442 2.31512C5.95941 2.2906 2.21588 5.97425 2.16659 10.5589V10.738ZM11.5416 15.7672H9.45825V13.6839H11.5416V15.7672ZM11.5416 11.6005H9.45825V5.35054H11.5416V11.6005Z" fill="#062E4B"/>
</svg>
