<svg width="54" height="54" viewBox="0 0 54 54" fill="none" xmlns="http://www.w3.org/2000/svg">
<circle cx="27" cy="27" r="27" fill="#062E4B" fill-opacity="0.1"/>
<g clip-path="url(#clip0_150_682)">
<path d="M26.6029 13.5C18.94 13.5 12.7058 19.7342 12.7058 27.3972C12.7058 35.0601 18.94 41.2943 26.6029 41.2943C34.2658 41.2943 40.4999 35.0601 40.4999 27.3972C40.4999 19.7342 34.2658 13.5 26.6029 13.5ZM26.6029 39.302C26.0736 39.302 25.2203 38.3442 24.507 36.2045C24.1739 35.2053 23.9054 34.0607 23.7065 32.8178C24.643 32.7434 25.6144 32.7041 26.6029 32.7041C27.5914 32.7041 28.5627 32.7434 29.4993 32.8179C29.3003 34.0609 29.0318 35.2053 28.6987 36.2045C27.9854 38.3442 27.1321 39.302 26.6029 39.302ZM26.6029 30.712C25.5255 30.712 24.472 30.7553 23.4574 30.838C23.3535 29.7345 23.2986 28.5797 23.2986 27.3971C23.2986 26.2144 23.3535 25.0596 23.4574 23.956C24.4718 24.0387 25.5254 24.082 26.6025 24.082C27.6799 24.082 28.7336 24.0387 29.7483 23.956C29.8523 25.0596 29.9071 26.2144 29.9071 27.3971C29.9071 28.5797 29.8523 29.7345 29.7483 30.838C28.7338 30.7554 27.6801 30.712 26.6029 30.712ZM14.6979 27.3972C14.6979 25.5525 15.1197 23.8046 15.8717 22.2446C17.3431 22.917 19.2773 23.428 21.479 23.7382C21.3644 24.934 21.3063 26.1669 21.3063 27.3972C21.3063 28.6275 21.3644 29.8604 21.479 31.0562C19.2772 31.3663 17.3431 31.8774 15.8717 32.5499C15.1197 30.9897 14.6979 29.2418 14.6979 27.3972ZM26.6029 15.4921C27.1321 15.4921 27.9854 16.4499 28.6987 18.5896C29.0318 19.5889 29.3003 20.7333 29.4993 21.9762C28.5626 22.0507 27.5912 22.09 26.6025 22.09C25.6141 22.09 24.6429 22.0507 23.7065 21.9764C23.9054 20.7334 24.1739 19.5889 24.507 18.5897C25.2203 16.4499 26.0736 15.4921 26.6029 15.4921ZM31.7266 23.7379C33.9284 23.4277 35.8625 22.9166 37.3338 22.2441C38.086 23.8042 38.5078 25.5524 38.5078 27.3971C38.5078 29.2416 38.086 30.9897 37.334 32.5496C35.8627 31.8772 33.9284 31.3663 31.7267 31.0561C31.8414 29.8604 31.8994 28.6274 31.8994 27.3971C31.8993 26.1667 31.8412 24.9337 31.7266 23.7379ZM36.3145 20.5187C35.0537 21.0642 33.3801 21.4891 31.4791 21.7587C31.1186 19.4531 30.5283 17.3922 29.7155 15.9057C32.4143 16.6376 34.7359 18.2964 36.3145 20.5187ZM23.4904 15.9058C22.6776 17.3923 22.0873 19.4533 21.7268 21.759C19.8258 21.4894 18.152 21.0645 16.8911 20.5191C18.4697 18.2965 20.7913 16.6376 23.4904 15.9058ZM16.8913 34.2753C18.152 33.7298 19.8258 33.3049 21.7268 33.0353C22.0873 35.3409 22.6776 37.4018 23.4904 38.8883C20.7913 38.1565 18.4697 36.4978 16.8913 34.2753ZM29.7155 38.8883C30.5283 37.4018 31.1186 35.3409 31.4789 33.0353C33.3799 33.3049 35.0537 33.7298 36.3146 34.2753C34.7361 36.4978 32.4144 38.1565 29.7155 38.8883Z" fill="#062E4B"/>
</g>
<defs>
<clipPath id="clip0_150_682">
<rect width="27.7941" height="27.7941" fill="white" transform="translate(12.7058 13.5)"/>
</clipPath>
</defs>
</svg>
